<svg width="367" height="367" viewBox="0 0 367 367" fill="none" xmlns="http://www.w3.org/2000/svg">
<path d="M126.156 40.1406C126.156 30.6072 133.826 22.9375 143.359 22.9375H154.828C164.362 22.9375 172.031 30.6072 172.031 40.1406C172.031 49.674 164.362 57.3438 154.828 57.3438H143.359C133.826 57.3438 126.156 49.674 126.156 40.1406ZM143.359 74.5469H154.828C164.362 74.5469 172.031 82.2166 172.031 91.75C172.031 101.283 164.362 108.953 154.828 108.953H143.359C133.826 108.953 126.156 101.283 126.156 91.75C126.156 82.2166 133.826 74.5469 143.359 74.5469ZM40.1406 126.156H51.6094C61.1428 126.156 68.8125 133.826 68.8125 143.359C68.8125 152.893 61.1428 160.562 51.6094 160.562H40.1406C30.6072 160.562 22.9375 152.893 22.9375 143.359C22.9375 133.826 30.6072 126.156 40.1406 126.156ZM0 203.14C0 192.317 8.8166 183.5 19.6402 183.5H347.36C358.183 183.5 367 192.317 367 203.14C367 253.674 335.174 296.826 290.518 313.599L289.228 323.992C287.794 335.461 278.046 344.062 266.433 344.062H100.495C88.9545 344.062 79.1344 335.461 77.7008 323.992L76.4105 313.67C31.8258 296.826 0 253.674 0 203.14ZM160.562 143.359C160.562 133.826 168.232 126.156 177.766 126.156H189.234C198.768 126.156 206.438 133.826 206.438 143.359C206.438 152.893 198.768 160.562 189.234 160.562H177.766C168.232 160.562 160.562 152.893 160.562 143.359ZM91.75 143.359C91.75 133.826 99.4197 126.156 108.953 126.156H120.422C129.955 126.156 137.625 133.826 137.625 143.359C137.625 152.893 129.955 160.562 120.422 160.562H108.953C99.4197 160.562 91.75 152.893 91.75 143.359ZM74.5469 74.5469H86.0156C95.549 74.5469 103.219 82.2166 103.219 91.75C103.219 101.283 95.549 108.953 86.0156 108.953H74.5469C65.0135 108.953 57.3438 101.283 57.3438 91.75C57.3438 82.2166 65.0135 74.5469 74.5469 74.5469ZM229.375 143.359C229.375 133.826 237.045 126.156 246.578 126.156H258.047C267.58 126.156 275.25 133.826 275.25 143.359C275.25 152.893 267.58 160.562 258.047 160.562H246.578C237.045 160.562 229.375 152.893 229.375 143.359ZM212.172 74.5469H223.641C233.174 74.5469 240.844 82.2166 240.844 91.75C240.844 101.283 233.174 108.953 223.641 108.953H212.172C202.638 108.953 194.969 101.283 194.969 91.75C194.969 82.2166 202.638 74.5469 212.172 74.5469ZM298.188 143.359C298.188 133.826 305.857 126.156 315.391 126.156H326.859C336.393 126.156 344.062 133.826 344.062 143.359C344.062 152.893 336.393 160.562 326.859 160.562H315.391C305.857 160.562 298.188 152.893 298.188 143.359ZM280.984 74.5469H292.453C301.987 74.5469 309.656 82.2166 309.656 91.75C309.656 101.283 301.987 108.953 292.453 108.953H280.984C271.451 108.953 263.781 101.283 263.781 91.75C263.781 82.2166 271.451 74.5469 280.984 74.5469ZM212.172 22.9375H223.641C233.174 22.9375 240.844 30.6072 240.844 40.1406C240.844 49.674 233.174 57.3438 223.641 57.3438H212.172C202.638 57.3438 194.969 49.674 194.969 40.1406C194.969 30.6072 202.638 22.9375 212.172 22.9375Z" fill="#FF9C06"/>
</svg>
