<svg width="1012" height="282" viewBox="0 0 1012 282" fill="none" xmlns="http://www.w3.org/2000/svg">
<path d="M228.699 125.46L233.565 92.2754C235.023 82.3274 230.607 72.4318 222.228 66.874L190.834 46.049C148.193 17.7643 93.335 15.6327 48.6285 40.5235L17.2212 58.0098C7.84447 63.2304 2.61623 73.6562 4.04074 84.2933L9.85026 127.675" stroke="#333333" stroke-width="5.49795"/>
<path d="M227.629 131.414L219.055 187.874C217.455 198.409 209.58 206.897 199.194 209.281L152.193 220.067C131.401 224.838 109.78 224.682 89.0586 219.611L36.3718 206.717C25.9829 204.175 18.1945 195.555 16.7154 184.962L9.23828 131.414" stroke="#333333" stroke-width="5.49795"/>
<path d="M211.505 197.395C211.831 196.606 212.844 196.387 213.467 196.969L217.34 200.583C218.969 202.103 219.484 204.475 218.632 206.534L215.277 214.642C214.425 216.702 212.385 218.016 210.158 217.941L204.864 217.763C204.012 217.735 203.45 216.863 203.776 216.075L211.505 197.395Z" fill="#333333" stroke="#333333" stroke-width="1.22177"/>
<path d="M198.315 246.752C198.607 246.046 199.514 245.849 200.073 246.37L203.54 249.607C204.999 250.968 205.46 253.092 204.697 254.936L201.693 262.197C200.93 264.041 199.104 265.218 197.109 265.151L192.369 264.992C191.605 264.966 191.102 264.186 191.394 263.48L198.315 246.752Z" fill="#333333" stroke="#333333" stroke-width="1.09409"/>
<path d="M38.1566 246.752C37.8646 246.046 36.9575 245.849 36.3991 246.37L32.9313 249.607C31.4725 250.968 31.0114 253.092 31.7743 254.936L34.7783 262.197C35.5412 264.041 37.3679 265.218 39.3623 265.151L44.1031 264.992C44.8665 264.966 45.3693 264.186 45.0773 263.48L38.1566 246.752Z" fill="#333333" stroke="#333333" stroke-width="1.09409"/>
<path d="M24.9386 197.395C24.6125 196.606 23.5995 196.387 22.976 196.969L19.1035 200.583C17.4745 202.103 16.9596 204.475 17.8115 206.534L21.1661 214.642C22.018 216.702 24.0579 218.016 26.285 217.941L31.579 217.763C32.4316 217.735 32.993 216.863 32.667 216.075L24.9386 197.395Z" fill="#333333" stroke="#333333" stroke-width="1.22177"/>
<path d="M219.817 101.673C219.817 100.897 220.591 100.359 221.318 100.631L234.169 105.426C236.072 106.136 237.334 107.953 237.334 109.985V130.4C237.334 132.431 236.072 134.249 234.169 134.959L221.318 139.754C220.591 140.025 219.817 139.488 219.817 138.712V101.673Z" fill="#333333" stroke="#333333" stroke-width="1.11217"/>
<path d="M16.9605 101.726C16.9605 100.941 16.1683 100.403 15.4381 100.693L3.62699 105.38C1.77313 106.115 0.555946 107.908 0.555946 109.902V130.482C0.555946 132.477 1.77313 134.269 3.62699 135.005L15.4381 139.692C16.1683 139.982 16.9605 139.444 16.9605 138.658V101.726Z" fill="#333333" stroke="#333333" stroke-width="1.11217"/>
<rect x="78.957" y="15.1182" width="79.7204" height="20.9228" rx="10.2323" fill="#333333"/>
<path d="M209.609 216.407V227.643C209.609 229.556 209.276 231.454 208.626 233.253L201.82 252.068" stroke="#333333" stroke-width="5.49795"/>
<path d="M26.4202 216.407V227.643C26.4202 229.556 26.753 231.454 27.4036 233.253L34.209 252.068" stroke="#333333" stroke-width="5.49795"/>
<path d="M15.5762 90.1157C15.5762 78.7043 22.9854 68.6143 33.8734 65.1981L77.3164 51.5677C103.985 43.2002 132.577 43.2002 159.246 51.5677L202.796 65.2317C213.62 68.6279 220.986 78.6589 220.986 90.0036V136.099C220.986 155.526 206.398 171.856 187.093 174.038L126.144 180.926C120.919 181.516 115.643 181.518 110.417 180.932L49.4968 174.092C30.1801 171.924 15.5762 155.588 15.5762 136.15V90.1157Z" fill="#DB2728"/>
<mask id="mask0_464_249" style="mask-type:alpha" maskUnits="userSpaceOnUse" x="15" y="45" width="206" height="137">
<path d="M15.5771 90.0415C15.5771 78.6301 22.9863 68.5401 33.8744 65.1239L77.3174 51.4935C103.986 43.126 132.578 43.126 159.247 51.4934L202.797 65.1575C213.621 68.5537 220.987 78.5847 220.987 89.9294V136.025C220.987 155.452 206.399 171.782 187.094 173.964L126.145 180.852C120.92 181.442 115.644 181.444 110.418 180.857L49.4977 174.018C30.181 171.849 15.5771 155.514 15.5771 136.076V90.0415Z" fill="#FE6474"/>
</mask>
<g mask="url(#mask0_464_249)">
<path d="M71.1684 103.698L92.0912 41.6932L21.2286 39.4023C0.585861 59.3324 -40.9135 99.7271 -41.7687 101.865C-42.624 104.003 -13.4135 148.674 1.29858 170.742L74.8337 182.655L67.5795 165.321L71.1684 134.7V103.698Z" fill="#A41816"/>
</g>
<path d="M31.1543 103.194C31.1543 94.4419 36.9993 86.767 45.4368 84.4403L91.1076 71.8463C108.842 66.9561 127.569 66.9561 145.303 71.8463L191.057 84.4633C199.445 86.7764 205.256 94.4064 205.256 103.108V136.57C205.256 151.19 194.173 163.428 179.626 164.873L123.361 170.461C119.932 170.802 116.478 170.803 113.05 170.465L56.8031 164.915C42.2476 163.478 31.1543 151.237 31.1543 136.611V103.194Z" fill="#84101D"/>
<path d="M16.7979 90.1157C16.7979 79.2382 23.8605 69.6202 34.2392 66.3639L77.6822 52.7334C104.113 44.4407 132.449 44.4407 158.88 52.7334L202.43 66.3974C212.745 69.6338 219.764 79.1928 219.764 90.0036V136.099C219.764 154.905 205.643 170.712 186.956 172.824L126.007 179.712C120.872 180.292 115.689 180.294 110.554 179.717L49.6331 172.878C30.9345 170.779 16.7979 154.966 16.7979 136.15V90.1157Z" stroke="#333333" stroke-width="2.44354"/>
<path d="M62.6025 115.518C62.6025 110.415 66.3624 106.092 71.4161 105.385L80.8451 104.065C81.7623 103.936 82.6926 103.933 83.6106 104.055L94.0353 105.439C99.1213 106.114 102.921 110.452 102.921 115.582V132.444C102.921 137.466 99.2757 141.746 94.3172 142.546L83.9001 144.225C82.7924 144.404 81.6628 144.399 80.5566 144.211L71.1199 142.607C66.2011 141.77 62.6025 137.508 62.6025 132.519V115.518Z" fill="white"/>
<path d="M133.455 115.518C133.455 110.415 137.215 106.092 142.269 105.385L151.698 104.065C152.615 103.936 153.545 103.933 154.463 104.055L164.888 105.439C169.974 106.114 173.773 110.452 173.773 115.582V132.444C173.773 137.466 170.128 141.746 165.17 142.546L154.753 144.225C153.645 144.404 152.515 144.399 151.409 144.211L141.972 142.607C137.054 141.77 133.455 137.508 133.455 132.519V115.518Z" fill="white"/>
<path d="M22.4451 186.477C20.8384 181.6 24.835 176.704 29.9344 177.301L114.826 187.24C117.011 187.496 119.219 187.496 121.404 187.24L206.13 177.296C211.213 176.7 215.208 181.565 213.633 186.435L202.085 222.154C201.185 224.938 198.655 226.872 195.733 227.011L118.115 230.686L40.5519 227.01C37.6444 226.872 35.1231 224.955 34.2122 222.191L22.4451 186.477Z" fill="#FF9C06"/>
<mask id="mask1_464_249" style="mask-type:alpha" maskUnits="userSpaceOnUse" x="22" y="178" width="194" height="56">
<path d="M22.8565 187.719C21.1409 182.994 24.7981 178.049 29.8183 178.305L118.726 182.848L207.916 178.306C212.95 178.049 216.608 183.02 214.866 187.75L202.22 222.09C201.289 224.618 198.995 226.39 196.314 226.654L126.878 233.471C121.456 234.003 115.995 234.003 110.574 233.47L41.2428 226.656C38.5508 226.392 36.2498 224.605 35.3266 222.062L22.8565 187.719Z" fill="#EA8E05"/>
</mask>
<g mask="url(#mask1_464_249)">
<path d="M77.7673 198.863L74.2981 187.003L71.9309 182.268L26.8317 176.325H7.70605L26.8317 224.373L97.2826 229.23L87.9125 217.943C83.2635 212.342 79.8108 205.849 77.7673 198.863Z" fill="#EA8E05"/>
</g>
<path d="M22.8131 185.134C21.4274 181.071 24.7809 176.961 29.0398 177.504L114.394 188.385C116.865 188.699 119.365 188.7 121.836 188.386L207.476 177.506C211.745 176.964 215.098 181.093 213.692 185.16L200.965 221.958C200.199 224.172 198.178 225.708 195.841 225.854L118.115 230.685L40.4951 225.855C38.1484 225.709 36.1216 224.161 35.3627 221.936L22.8131 185.134Z" stroke="#333333" stroke-width="2.44354"/>
<path d="M35.0784 242.244C33.4259 237.765 36.8885 233.054 41.6571 233.293L117.897 237.128L194.378 233.294C199.159 233.055 202.622 237.79 200.945 242.274L190.469 270.276C189.577 272.658 187.407 274.324 184.875 274.568L125.501 280.306C120.444 280.795 115.351 280.795 110.294 280.306L51.0125 274.571C48.4702 274.325 46.2929 272.646 45.4089 270.249L35.0784 242.244Z" fill="#FF9C06"/>
<mask id="mask2_464_249" style="mask-type:alpha" maskUnits="userSpaceOnUse" x="34" y="233" width="167" height="48">
<path d="M34.6438 242.17C32.9914 237.69 36.4539 232.979 41.2226 233.219L117.463 237.054L193.943 233.22C198.725 232.98 202.188 237.716 200.51 242.2L190.034 270.201C189.143 272.583 186.972 274.249 184.441 274.494L125.066 280.232C120.009 280.721 114.916 280.721 109.859 280.231L50.5779 274.496C48.0356 274.25 45.8583 272.571 44.9744 270.175L34.6438 242.17Z" fill="#2353FF"/>
</mask>
<g mask="url(#mask2_464_249)">
<path d="M106.286 247.381L99.8021 237.482L64.5999 235.65L43.5 234.521L35 238.021L40 251.521L43.5 262.521L47 270.521L51 273.021L65.3732 283.428L158.905 276.339L123.531 261.671C116.479 258.747 110.47 253.768 106.286 247.381Z" fill="#EA8E05"/>
</g>
<path d="M117.839 238.284L117.897 238.287L117.955 238.284L194.436 234.45C198.386 234.252 201.247 238.164 199.861 241.868L189.385 269.87C188.648 271.838 186.855 273.214 184.764 273.416L125.389 279.154C120.406 279.636 115.388 279.636 110.405 279.153L51.1239 273.418C49.0238 273.215 47.2251 271.828 46.4949 269.849L36.1644 241.844C34.7993 238.143 37.6597 234.251 41.599 234.449L117.839 238.284Z" stroke="#333333" stroke-width="2.31504"/>
<path d="M349.718 187L330.349 151.845H324.91V187H302.225V93.872H340.299C347.639 93.872 353.874 95.1544 359.004 97.7191C364.222 100.284 368.113 103.822 370.678 108.332C373.243 112.754 374.525 117.707 374.525 123.19C374.525 129.381 372.756 134.908 369.219 139.773C365.77 144.637 360.64 148.086 353.83 150.12L375.321 187H349.718ZM324.91 135.793H338.972C343.129 135.793 346.224 134.776 348.258 132.742C350.381 130.708 351.442 127.833 351.442 124.119C351.442 120.581 350.381 117.795 348.258 115.761C346.224 113.727 343.129 112.71 338.972 112.71H324.91V135.793ZM384.255 149.855C384.255 142.249 385.67 135.572 388.5 129.823C391.419 124.074 395.354 119.652 400.307 116.557C405.26 113.462 410.787 111.914 416.89 111.914C422.108 111.914 426.662 112.975 430.554 115.098C434.534 117.22 437.585 120.006 439.707 123.455V112.975H462.392V187H439.707V176.52C437.496 179.969 434.401 182.755 430.421 184.877C426.53 187 421.975 188.061 416.757 188.061C410.743 188.061 405.26 186.514 400.307 183.418C395.354 180.234 391.419 175.768 388.5 170.019C385.67 164.182 384.255 157.461 384.255 149.855ZM439.707 149.988C439.707 144.327 438.115 139.861 434.932 136.589C431.836 133.317 428.033 131.68 423.523 131.68C419.012 131.68 415.165 133.317 411.981 136.589C408.886 139.773 407.338 144.195 407.338 149.855C407.338 155.515 408.886 160.026 411.981 163.386C415.165 166.659 419.012 168.295 423.523 168.295C428.033 168.295 431.836 166.659 434.932 163.386C438.115 160.114 439.707 155.648 439.707 149.988ZM523.909 112.179C532.576 112.179 539.474 115.009 544.604 120.669C549.822 126.241 552.431 133.936 552.431 143.753V187H529.879V146.804C529.879 141.851 528.596 138.004 526.031 135.262C523.467 132.521 520.017 131.15 515.684 131.15C511.35 131.15 507.901 132.521 505.336 135.262C502.771 138.004 501.489 141.851 501.489 146.804V187H478.804V112.975H501.489V122.792C503.789 119.52 506.884 116.955 510.775 115.098C514.667 113.152 519.045 112.179 523.909 112.179ZM609.452 167.764V187H597.911C589.686 187 583.274 185.01 578.675 181.03C574.076 176.962 571.777 170.373 571.777 161.264V131.813H562.756V112.975H571.777V94.9333H594.462V112.975H609.32V131.813H594.462V161.529C594.462 163.74 594.992 165.332 596.054 166.305C597.115 167.278 598.884 167.764 601.36 167.764H609.452ZM617.578 149.855C617.578 142.249 618.993 135.572 621.823 129.823C624.742 124.074 628.677 119.652 633.63 116.557C638.582 113.462 644.11 111.914 650.212 111.914C655.43 111.914 659.985 112.975 663.877 115.098C667.856 117.22 670.908 120.006 673.03 123.455V112.975H695.715V187H673.03V176.52C670.819 179.969 667.724 182.755 663.744 184.877C659.852 187 655.298 188.061 650.08 188.061C644.066 188.061 638.582 186.514 633.63 183.418C628.677 180.234 624.742 175.768 621.823 170.019C618.993 164.182 617.578 157.461 617.578 149.855ZM673.03 149.988C673.03 144.327 671.438 139.861 668.254 136.589C665.159 133.317 661.356 131.68 656.845 131.68C652.335 131.68 648.488 133.317 645.304 136.589C642.209 139.773 640.661 144.195 640.661 149.855C640.661 155.515 642.209 160.026 645.304 163.386C648.488 166.659 652.335 168.295 656.845 168.295C661.356 168.295 665.159 166.659 668.254 163.386C671.438 160.114 673.03 155.648 673.03 149.988ZM757.232 112.179C765.899 112.179 772.797 115.009 777.927 120.669C783.145 126.241 785.754 133.936 785.754 143.753V187H763.201V146.804C763.201 141.851 761.919 138.004 759.354 135.262C756.789 132.521 753.34 131.15 749.007 131.15C744.673 131.15 741.224 132.521 738.659 135.262C736.094 138.004 734.812 141.851 734.812 146.804V187H712.127V112.975H734.812V122.792C737.111 119.52 740.207 116.955 744.098 115.098C747.989 113.152 752.367 112.179 757.232 112.179ZM829.642 111.914C834.86 111.914 839.414 112.975 843.306 115.098C847.286 117.22 850.337 120.006 852.459 123.455V112.975H875.144V186.867C875.144 193.677 873.774 199.824 871.032 205.307C868.379 210.879 864.266 215.301 858.694 218.573C853.211 221.846 846.357 223.482 838.132 223.482C827.165 223.482 818.277 220.873 811.467 215.655C804.657 210.525 800.766 203.538 799.793 194.694H822.213C822.92 197.524 824.601 199.735 827.254 201.327C829.907 203.008 833.179 203.848 837.071 203.848C841.758 203.848 845.473 202.477 848.214 199.735C851.044 197.082 852.459 192.793 852.459 186.867V176.387C850.248 179.836 847.197 182.666 843.306 184.877C839.414 187 834.86 188.061 829.642 188.061C823.539 188.061 818.012 186.514 813.059 183.418C808.106 180.234 804.171 175.768 801.252 170.019C798.422 164.182 797.007 157.461 797.007 149.855C797.007 142.249 798.422 135.572 801.252 129.823C804.171 124.074 808.106 119.652 813.059 116.557C818.012 113.462 823.539 111.914 829.642 111.914ZM852.459 149.988C852.459 144.327 850.867 139.861 847.684 136.589C844.588 133.317 840.785 131.68 836.275 131.68C831.764 131.68 827.917 133.317 824.733 136.589C821.638 139.773 820.09 144.195 820.09 149.855C820.09 155.515 821.638 160.026 824.733 163.386C827.917 166.659 831.764 168.295 836.275 168.295C840.785 168.295 844.588 166.659 847.684 163.386C850.867 160.114 852.459 155.648 852.459 149.988ZM902.965 105.281C898.985 105.281 895.713 104.131 893.148 101.832C890.672 99.4437 889.433 96.5252 889.433 93.076C889.433 89.5384 890.672 86.6198 893.148 84.3204C895.713 81.9325 898.985 80.7385 902.965 80.7385C906.856 80.7385 910.04 81.9325 912.516 84.3204C915.081 86.6198 916.364 89.5384 916.364 93.076C916.364 96.5252 915.081 99.4437 912.516 101.832C910.04 104.131 906.856 105.281 902.965 105.281ZM914.241 112.975V187H891.556V112.975H914.241ZM975.785 112.179C984.453 112.179 991.351 115.009 996.48 120.669C1001.7 126.241 1004.31 133.936 1004.31 143.753V187H981.755V146.804C981.755 141.851 980.473 138.004 977.908 135.262C975.343 132.521 971.894 131.15 967.56 131.15C963.227 131.15 959.778 132.521 957.213 135.262C954.648 138.004 953.366 141.851 953.366 146.804V187H930.681V112.975H953.366V122.792C955.665 119.52 958.761 116.955 962.652 115.098C966.543 113.152 970.921 112.179 975.785 112.179Z" fill="#DB2728"/>
</svg>
